<svg width="50" height="50" viewBox="0 0 50 50" fill="none" xmlns="http://www.w3.org/2000/svg">
<path fill-rule="evenodd" clip-rule="evenodd" d="M44.9914 5.02261C51.7213 11.7756 51.6021 22.6872 45.038 29.2738C41.0258 33.2998 35.1378 34.6699 29.5069 33.6437L24.1386 39.0304L20.3033 39.0921L19.7762 43.4302L15.2368 43.9666L14.6296 48.6169L0.406068 50L0 37.0847L16.468 20.5602C15.4659 15.2745 16.6618 9.1514 20.8249 4.97402C27.3387 -1.56213 38.2224 -1.7696 44.9914 5.02261ZM27.8714 27.8085C32.8094 29.1 37.7009 29.1598 41.3145 25.5338C45.8073 21.0256 45.9488 13.4596 41.266 8.76076C36.613 4.09181 29.0766 4.17031 24.5409 8.72151C20.7131 12.5625 21.0782 17.5529 22.2834 22.2013L5.33847 39.2042L5.49308 44.1928L9.95049 43.761L10.5447 39.1986L15.0468 38.6659L15.6317 33.8811L21.9201 33.7802L27.8714 27.8085ZM32.6511 11.3307C34.1934 9.78314 36.6969 9.78314 38.2392 11.3307C39.7815 12.8783 39.7815 15.3904 38.2392 16.938C36.6969 18.4855 34.1934 18.4855 32.6511 16.938C31.1088 15.3904 31.1088 12.8783 32.6511 11.3307Z" fill="#EF792F"/>
</svg>
