<svg width="50" height="50" viewBox="0 0 50 50" fill="none" xmlns="http://www.w3.org/2000/svg">
<g clip-path="url(#clip0)">
<path d="M49.6292 43.5L36.3937 30.2625C38.3312 27.2104 39.45 23.5958 39.45 19.7229C39.4521 8.85 30.6021 0 19.725 0C8.84792 0 0 8.85 0 19.725C0 30.6021 8.84792 39.4521 19.725 39.4521C23.4083 39.4521 26.8521 38.4375 29.8062 36.675L43.1312 50L49.6292 43.5ZM7.35 19.725C7.35 12.9063 12.9021 7.35417 19.7229 7.35417C26.5458 7.35417 32.0979 12.9042 32.0979 19.725C32.0979 26.5479 26.5458 32.0979 19.7229 32.0979C12.9021 32.0979 7.35 26.5479 7.35 19.725Z" fill="#4F86EC"/>
</g>
<defs>
<clipPath id="clip0">
<rect width="50" height="50" fill="white"/>
</clipPath>
</defs>
</svg>
