<svg width="50" height="50" viewBox="0 0 50 50" fill="none" xmlns="http://www.w3.org/2000/svg">
<g clip-path="url(#clip0)">
<path d="M50 9.49371C48.1604 10.3104 46.1833 10.8604 44.1083 11.1083C46.2271 9.83954 47.8542 7.82912 48.6187 5.43329C46.6375 6.60829 44.4417 7.46246 42.1042 7.92287C40.2354 5.92912 37.5667 4.68329 34.6167 4.68329C27.9937 4.68329 23.1271 10.8625 24.6229 17.277C16.1 16.85 8.54167 12.7666 3.48125 6.56037C0.79375 11.1708 2.0875 17.202 6.65417 20.2562C4.975 20.202 3.39167 19.7416 2.01042 18.9729C1.89792 23.725 5.30417 28.1708 10.2375 29.1604C8.79375 29.552 7.2125 29.6437 5.60417 29.3354C6.90833 33.4104 10.6958 36.375 15.1875 36.4583C10.875 39.8395 5.44167 41.35 0 40.7083C4.53958 43.6187 9.93333 45.3166 15.725 45.3166C34.7708 45.3166 45.5312 29.2312 44.8812 14.8041C46.8854 13.3562 48.625 11.55 50 9.49371V9.49371Z" fill="#69ABE8"/>
</g>
<defs>
<clipPath id="clip0">
<rect width="50" height="50" fill="white"/>
</clipPath>
</defs>
</svg>
